<svg width="912" height="867" xmlns="http://www.w3.org/2000/svg" xmlns:xlink="http://www.w3.org/1999/xlink" xml:space="preserve" overflow="hidden"><g transform="translate(-1246 -807)"><path d="M1307.78 1115.81C1307.78 1050.56 1329.57 988.059 1365.55 942.315 1401.4 896.721 1450.36 868.743 1505.66 868.743 1582.1 868.743 1641.4 918.493 1679.88 996.819L1702 1041.83 1724.12 996.819C1762.6 918.498 1821.89 868.743 1898.34 868.743 1953.65 868.743 2002.61 896.725 2038.46 942.322 2074.43 988.069 2096.22 1050.57 2096.22 1115.81 2096.22 1125.53 2095.75 1135.17 2094.83 1144.73 2110.92 1157.24 2125.49 1171.61 2138.21 1187.51 2142.94 1164.26 2145.5 1140.34 2145.5 1115.81 2145.5 1040.1 2120.34 966.759 2077.21 911.897 2033.95 856.888 1971.65 819.5 1898.34 819.5 1812.02 819.5 1746.37 867.844 1702 936.053 1657.63 867.841 1591.98 819.5 1505.66 819.5 1432.35 819.5 1370.05 856.881 1326.8 911.89 1283.66 966.747 1258.5 1040.09 1258.5 1115.81 1258.5 1284.24 1370.24 1419.55 1476.53 1510.61 1530.18 1556.57 1583.71 1592.37 1623.77 1616.66 1643.83 1628.82 1660.58 1638.14 1672.38 1644.45 1678.28 1647.6 1682.94 1650 1686.16 1651.64 1687.78 1652.45 1689.03 1653.07 1689.9 1653.5L1690.9 1653.99 1691.18 1654.13 1691.29 1654.19 1702.34 1659.5 1713.28 1653.9 1713.36 1653.86 1713.64 1653.71 1714.64 1653.19C1715.5 1652.74 1716.75 1652.09 1718.35 1651.23 1721.56 1649.5 1726.21 1646.97 1732.1 1643.65 1743.87 1637.02 1760.59 1627.25 1780.62 1614.59 1794.73 1605.67 1810.52 1595.29 1827.4 1583.54 1810.86 1575.88 1795.26 1566.52 1780.83 1555.7 1771.48 1561.96 1762.58 1567.73 1754.28 1572.98 1735.03 1585.14 1719.03 1594.48 1707.9 1600.76 1705.61 1602.05 1703.54 1603.2 1701.67 1604.23 1699.86 1603.28 1697.84 1602.21 1695.63 1601.03 1684.52 1595.09 1668.54 1586.2 1649.33 1574.56 1610.86 1551.23 1559.67 1516.98 1508.61 1473.23 1405.46 1384.86 1307.78 1262.08 1307.78 1115.81Z" stroke="#EE4D38" stroke-width="24.6356" stroke-miterlimit="8" fill="#EE4D38" fill-rule="evenodd"/><path d="M1948.35 1410.5C1975.5 1410.5 1997.5 1388.48 1997.5 1361.32 1997.5 1334.16 1975.5 1312.15 1948.35 1312.15 1942.52 1312.15 1936.93 1313.16 1931.74 1315.03L1875.25 1258.5 1840.5 1293.27 1899.95 1352.76C1899.46 1355.54 1899.21 1358.4 1899.21 1361.32 1899.21 1388.48 1921.21 1410.5 1948.35 1410.5Z" stroke="#EE4D38" stroke-width="24.6356" stroke-miterlimit="8" fill="none" fill-rule="evenodd"/><path d="M1936 1558.5C2051.7 1558.5 2145.5 1464.7 2145.5 1349 2145.5 1233.3 2051.7 1139.5 1936 1139.5 1820.3 1139.5 1726.5 1233.3 1726.5 1349 1726.5 1464.7 1820.3 1558.5 1936 1558.5ZM1936 1509.21C2024.48 1509.21 2096.21 1437.48 2096.21 1349 2096.21 1260.52 2024.48 1188.79 1936 1188.79 1847.52 1188.79 1775.79 1260.52 1775.79 1349 1775.79 1437.48 1847.52 1509.21 1936 1509.21Z" stroke="#EE4D38" stroke-width="24.6356" stroke-miterlimit="8" fill="#EE4D38" fill-rule="evenodd"/></g></svg>