<svg width="1047" height="1047" xmlns="http://www.w3.org/2000/svg" xmlns:xlink="http://www.w3.org/1999/xlink" xml:space="preserve" overflow="hidden"><defs><clipPath id="clip0"><rect x="862" y="893" width="1047" height="1047"/></clipPath></defs><g clip-path="url(#clip0)" transform="translate(-862 -893)"><path d="M1705.42 951.166C1721.48 951.166 1734.5 938.145 1734.5 922.083 1734.5 906.021 1721.48 893 1705.42 893L1647.25 893C1631.19 893 1618.17 906.021 1618.17 922.083 1618.17 938.145 1631.19 951.166 1647.25 951.166L1647.25 983.158C1628.68 986.927 1611.4 994.233 1596.14 1004.34L1572.05 980.252C1583.41 968.894 1583.41 950.48 1572.05 939.122 1560.69 927.764 1542.28 927.764 1530.92 939.122L1510.63 959.413 1510.35 959.684 1510.08 959.959 1489.79 980.252C1478.43 991.609 1478.43 1010.02 1489.79 1021.38 1501.15 1032.74 1519.56 1032.74 1530.92 1021.38L1555.01 1045.47C1544.9 1060.73 1537.59 1078.01 1533.83 1096.58L1501.83 1096.58C1501.83 1080.52 1488.81 1067.5 1472.75 1067.5 1456.69 1067.5 1443.67 1080.52 1443.67 1096.58L1443.67 1154.75C1443.67 1170.81 1456.69 1183.83 1472.75 1183.83 1488.81 1183.83 1501.83 1170.81 1501.83 1154.75L1533.83 1154.75C1537.59 1173.31 1544.9 1190.6 1555.01 1205.86L1530.92 1229.95C1519.56 1218.59 1501.14 1218.59 1489.78 1229.95 1478.43 1241.31 1478.43 1259.73 1489.78 1271.08L1530.92 1312.21C1542.27 1323.57 1560.69 1323.57 1572.05 1312.21 1583.4 1300.86 1583.4 1282.44 1572.05 1271.08L1596.14 1246.99C1611.4 1257.1 1628.68 1264.4 1647.25 1268.17L1647.25 1300.16C1631.19 1300.16 1618.17 1313.18 1618.17 1329.25 1618.17 1345.31 1631.19 1358.33 1647.25 1358.33L1705.42 1358.33C1721.48 1358.33 1734.5 1345.31 1734.5 1329.25 1734.5 1313.18 1721.48 1300.16 1705.42 1300.16L1705.42 1268.17C1723.98 1264.4 1741.27 1257.1 1756.53 1246.99L1780.62 1271.08C1769.26 1282.44 1769.26 1300.86 1780.62 1312.21 1791.98 1323.57 1810.39 1323.57 1821.75 1312.21L1862.88 1271.08C1874.24 1259.73 1874.24 1241.31 1862.88 1229.95 1851.52 1218.59 1833.11 1218.59 1821.75 1229.95L1797.66 1205.86C1807.77 1190.6 1815.07 1173.31 1818.84 1154.75L1850.83 1154.75C1850.83 1170.81 1863.85 1183.83 1879.92 1183.83 1895.98 1183.83 1909 1170.81 1909 1154.75L1909 1096.58C1909 1080.52 1895.98 1067.5 1879.92 1067.5 1863.85 1067.5 1850.83 1080.52 1850.83 1096.58L1818.84 1096.58C1815.07 1078.01 1807.77 1060.73 1797.66 1045.47L1821.75 1021.38C1833.11 1032.74 1851.52 1032.74 1862.88 1021.38 1874.24 1010.02 1874.24 991.605 1862.88 980.247L1821.75 939.117C1810.39 927.76 1791.98 927.76 1780.62 939.117 1769.26 950.475 1769.26 968.889 1780.62 980.247L1756.53 1004.34C1741.27 994.233 1723.98 986.927 1705.42 983.158L1705.42 951.166ZM1122.33 1042.97 1071.95 1072.06 1103.52 1126.73C1080.16 1154.04 1075.29 1194.17 1094.29 1227.07L1100.75 1238.27C1009.56 1297.97 949.25 1401.06 949.25 1518.29 949.25 1554.59 955.045 1589.59 965.773 1622.38 902.515 1673.01 862 1750.88 862 1838.2 862 1866.43 866.244 1893.73 874.148 1919.45L880.46 1939.99 1373.98 1939.99C1374.42 1940 1374.87 1940 1375.31 1939.99L1821.75 1939.99C1837.81 1939.99 1850.83 1926.97 1850.83 1910.91 1850.83 1894.85 1837.81 1881.83 1821.75 1881.83L1411.15 1881.83C1413.41 1867.61 1414.58 1853.03 1414.58 1838.2 1414.58 1798.72 1406.3 1761.17 1391.38 1727.19L1788.11 1498.14 1759.03 1447.77 1362.49 1676.7C1312.31 1607.17 1230.59 1561.91 1138.29 1561.91 1094.7 1561.91 1053.47 1572.01 1016.8 1589.99 1010.68 1567.14 1007.42 1543.11 1007.42 1518.29 1007.42 1422.67 1055.98 1338.36 1129.89 1288.74L1210.62 1428.56C1234.71 1470.29 1288.07 1484.59 1329.8 1460.5L1354.99 1445.96 1384.08 1496.33 1434.45 1467.25 1405.37 1416.87 1430.55 1402.33C1472.28 1378.24 1486.58 1324.88 1462.49 1283.15L1346.15 1081.65C1327.16 1048.75 1289.98 1032.91 1254.64 1039.48L1223.07 984.806 1172.7 1013.89 1129.08 938.329 1078.7 967.412 1122.33 1042.97ZM1362.49 1676.7 1230.1 1753.14 1259.18 1803.51 1391.38 1727.19C1383.51 1709.29 1373.8 1692.38 1362.49 1676.7Z" fill="#EE4D38" fill-rule="evenodd"/></g></svg>