<svg width="1013" height="717" xmlns="http://www.w3.org/2000/svg" xmlns:xlink="http://www.w3.org/1999/xlink" xml:space="preserve" overflow="hidden"><g transform="translate(-135 -1349)"><path d="M641 1609 592 1609 592 1807 641 1807 641 1609Z" fill="#EE4D38" fill-rule="evenodd"/><path d="M728.868 1609 789.667 1700.51 789.667 1609 839 1609 839 1807 801.132 1807 740.333 1715.49 740.333 1807 691 1807 691 1609 728.868 1609Z" fill="#EE4D38" fill-rule="evenodd"/><path d="M997.95 1663.55 1019.25 1675.95 1044 1633.26 1022.69 1620.86C1013 1615.22 1002.39 1611.19 991.275 1608.97 971.427 1605.01 950.854 1607.04 932.159 1614.8 913.464 1622.56 897.486 1635.7 886.244 1652.55 875.002 1669.41 869 1689.23 869 1709.5 869 1729.77 875.002 1749.59 886.244 1766.45 897.486 1783.3 913.464 1796.44 932.159 1804.2 950.854 1811.96 971.427 1813.99 991.275 1810.03 1002.39 1807.82 1013 1803.78 1022.69 1798.14L1044 1785.74 1019.25 1743.05 997.95 1755.45C992.921 1758.37 987.422 1760.47 981.661 1761.61 971.373 1763.66 960.709 1762.61 951.017 1758.59 941.327 1754.57 933.043 1747.76 927.214 1739.02 921.387 1730.28 918.276 1720.01 918.276 1709.5 918.276 1698.99 921.387 1688.72 927.214 1679.98 933.043 1671.24 941.327 1664.43 951.017 1660.41 960.709 1656.39 971.373 1655.34 981.661 1657.39 987.422 1658.53 992.921 1660.63 997.95 1663.55Z" fill="#EE4D38" fill-rule="evenodd"/><path d="M369 1708C369 1653.33 413.325 1609 468 1609 522.675 1609 567 1653.33 567 1708 567 1762.68 522.675 1807 468 1807 413.325 1807 369 1762.68 369 1708ZM468 1658.5C440.661 1658.5 418.5 1680.66 418.5 1708 418.5 1735.34 440.661 1757.5 468 1757.5 495.339 1757.5 517.5 1735.34 517.5 1708 517.5 1680.66 495.339 1658.5 468 1658.5Z" fill="#EE4D38" fill-rule="evenodd"/><path d="M295.334 1609 246 1609 246 1807 357 1807 357 1757.5 295.334 1757.5 295.334 1609Z" fill="#EE4D38" fill-rule="evenodd"/><path d="M147.5 1435.64C147.5 1394.69 180.676 1361.5 221.6 1361.5L1061.4 1361.5C1102.33 1361.5 1135.5 1394.69 1135.5 1435.64L1135.5 1979.36C1135.5 2020.31 1102.33 2053.5 1061.4 2053.5L221.6 2053.5C180.676 2053.5 147.5 2020.31 147.5 1979.36L147.5 1435.64ZM221.6 1410.93 1061.4 1410.93C1075.04 1410.93 1086.1 1421.99 1086.1 1435.64L1086.1 1979.36C1086.1 1993.01 1075.04 2004.07 1061.4 2004.07L221.6 2004.07C207.959 2004.07 196.9 1993.01 196.9 1979.36L196.9 1435.64C196.9 1421.99 207.959 1410.93 221.6 1410.93Z" stroke="#EE4D38" stroke-width="24.7071" stroke-miterlimit="8" fill="none" fill-rule="evenodd"/></g></svg>