<svg width="682" height="909" xmlns="http://www.w3.org/2000/svg" xmlns:xlink="http://www.w3.org/1999/xlink" xml:space="preserve" overflow="hidden"><g transform="translate(-3534 -187)"><path d="M3852.75 619 3852.75 732.75 3739 732.75 3739 778.25 3852.75 778.25 3852.75 892 3898.25 892 3898.25 778.25 4012 778.25 4012 732.75 3898.25 732.75 3898.25 619 3852.75 619Z" fill="#EE4D38" fill-rule="evenodd"/><path d="M3534 255.175C3534 217.523 3564.53 187 3602.2 187L4147.8 187C4185.47 187 4216 217.523 4216 255.175L4216 436.975C4216 474.628 4185.47 505.15 4147.8 505.15L4147.8 1027.82C4147.8 1065.48 4117.27 1096 4079.6 1096L3670.4 1096C3632.73 1096 3602.2 1065.48 3602.2 1027.82L3602.2 505.15C3564.53 505.15 3534 474.628 3534 436.975L3534 255.175ZM3647.67 505.15 4102.33 505.15 4102.33 1027.82C4102.33 1040.38 4092.16 1050.55 4079.6 1050.55L3670.4 1050.55C3657.84 1050.55 3647.67 1040.38 3647.67 1027.82L3647.67 505.15ZM4147.8 459.7 4056.87 459.7 4056.87 232.45 4147.8 232.45C4160.36 232.45 4170.53 242.625 4170.53 255.175L4170.53 436.975C4170.53 449.526 4160.36 459.7 4147.8 459.7ZM4011.4 232.45 3897.73 232.45 3897.73 459.7 4011.4 459.7 4011.4 232.45ZM3602.2 232.45 3693.13 232.45 3693.13 459.7 3602.2 459.7C3589.64 459.7 3579.47 449.526 3579.47 436.975L3579.47 255.175C3579.47 242.625 3589.64 232.45 3602.2 232.45ZM3738.6 459.7 3738.6 232.45 3852.27 232.45 3852.27 459.7 3738.6 459.7Z" fill="#EE4D38" fill-rule="evenodd"/></g></svg>